<svg width="64" height="64" viewBox="0 0 64 64" fill="none" xmlns="http://www.w3.org/2000/svg">
	<style>
		.dots, .arc {
		stroke: #000000;
		}
		.D, .M, .dot {
		fill: #000000;
		}
		@media (prefers-color-scheme: dark) {
		.dots, .arc {
		stroke: #ffffff;
		}
		.D, .M, .dot {
		fill: #ffffff;
		}
		}
	</style>
	<path class="dots" d="M5 32.0003V32.0303M18.5 8.60034V8.63034M18.5 55.4003V55.4303M8.6 45.5003V45.5303M8.6 18.5003V18.5303" stroke-width="5" stroke-linecap="round" stroke-linejoin="round" />
	<path class="arc" d="M33 59C40.1608 59 47.0284 56.1554 52.0919 51.0919C57.1554 46.0284 60 39.1608 60 32C60 24.8392 57.1554 17.9716 52.0919 12.9081C47.0284 7.84463 40.1608 5 33 5" stroke-width="5" stroke-linecap="round" stroke-linejoin="round" />
	<path class="D" d="M51.4706 38.0947C51.4706 38.8047 51.2961 39.4556 50.9471 40.0473C50.5982 40.6391 50.1329 41.1124 49.5512 41.4675C48.9696 41.8225 48.3298 42 47.6319 42H39.8672C39.4988 42 39.1789 41.8718 38.9075 41.6154C38.6554 41.3393 38.5294 41.0138 38.5294 40.6391V23.3609C38.5294 22.9665 38.6554 22.641 38.9075 22.3846C39.1789 22.1282 39.4988 22 39.8672 22H47.6319C48.3298 22 48.9696 22.1775 49.5512 22.5325C50.1329 22.8876 50.5982 23.3609 50.9471 23.9527C51.2961 24.5444 51.4706 25.2051 51.4706 25.9349V38.0947ZM48.0099 38.0947V25.9349C48.0099 25.6588 47.8839 25.5207 47.6319 25.5207H42.3972C42.1452 25.5207 42.0192 25.6489 42.0192 25.9053V38.1243C42.0192 38.3807 42.1452 38.5089 42.3972 38.5089H47.6319C47.7288 38.5089 47.816 38.4694 47.8936 38.3905C47.9711 38.2919 48.0099 38.1933 48.0099 38.0947Z" />
	<path class="M" d="M34 40.2239C34 40.713 33.8179 41.1377 33.4538 41.4981C33.1157 41.8327 32.6995 42 32.2053 42H31.1129C30.6188 42 30.1896 41.8327 29.8255 41.4981C29.4873 41.1377 29.3183 40.713 29.3183 40.2239V27.1351C29.3183 26.7748 29.1492 26.5946 28.8111 26.5946H27.2895C26.9774 26.5946 26.8214 26.7748 26.8214 27.1351V40.2239C26.8214 40.713 26.6393 41.1377 26.2752 41.4981C25.937 41.8327 25.5209 42 25.0267 42H23.9733C23.4791 42 23.05 41.8327 22.6858 41.4981C22.3477 41.1377 22.1786 40.713 22.1786 40.2239V27.1351C22.1786 26.7748 22.0226 26.5946 21.7105 26.5946H20.1889C19.8508 26.5946 19.6817 26.7748 19.6817 27.1351V40.2239C19.6817 40.713 19.4997 41.1377 19.1355 41.4981C18.7974 41.8327 18.3812 42 17.8871 42H16.7947C16.3005 42 15.8713 41.8327 15.5072 41.4981C15.1691 41.1377 15 40.713 15 40.2239V26.3243C15 25.5264 15.1951 24.8057 15.5852 24.1622C16.0014 23.4929 16.5346 22.9653 17.1848 22.5792C17.835 22.193 18.5633 22 19.3696 22H22.4517C23.024 22 23.5441 22.1158 24.0123 22.3475C24.3244 22.4247 24.6496 22.4247 24.9877 22.3475C25.4559 22.1158 25.976 22 26.5483 22H29.6304C30.4367 22 31.165 22.193 31.8152 22.5792C32.4654 22.9653 32.9856 23.4929 33.3758 24.1622C33.7919 24.8057 34 25.5264 34 26.3243V40.2239Z" />
	<path class="dot" d="M47 32C47 33.1046 46.1046 34 45 34C43.8954 34 43 33.1046 43 32C43 30.8954 43.8954 30 45 30C46.1046 30 47 30.8954 47 32Z" />
</svg>
